<mxfile host="app.diagrams.net" modified="2023-09-12T06:49:04.440Z" agent="Mozilla/5.0 (Windows NT 10.0; Win64; x64) AppleWebKit/537.36 (KHTML, like Gecko) Chrome/114.0.0.0 YaBrowser/23.7.4.971 Yowser/2.5 Safari/537.36" etag="QP1-Z7PfOA8rMI92FSEk" version="21.7.4" type="device">
  <diagram name="Страница — 1" id="icxn_Qf4wakDoKzC98Y2">
    <mxGraphModel dx="1434" dy="791" grid="1" gridSize="10" guides="1" tooltips="1" connect="1" arrows="1" fold="1" page="1" pageScale="1" pageWidth="827" pageHeight="1169" math="0" shadow="0">
      <root>
        <mxCell id="0" />
        <mxCell id="1" parent="0" />
        <mxCell id="vcMFqcLO1t7sQVbXytFB-14" style="edgeStyle=orthogonalEdgeStyle;rounded=0;orthogonalLoop=1;jettySize=auto;html=1;entryX=0.5;entryY=0;entryDx=0;entryDy=0;" edge="1" parent="1" source="vcMFqcLO1t7sQVbXytFB-12" target="vcMFqcLO1t7sQVbXytFB-13">
          <mxGeometry relative="1" as="geometry" />
        </mxCell>
        <mxCell id="vcMFqcLO1t7sQVbXytFB-12" value="Начало" style="ellipse;whiteSpace=wrap;html=1;" vertex="1" parent="1">
          <mxGeometry x="354" y="160" width="120" height="60" as="geometry" />
        </mxCell>
        <mxCell id="vcMFqcLO1t7sQVbXytFB-16" style="edgeStyle=orthogonalEdgeStyle;rounded=0;orthogonalLoop=1;jettySize=auto;html=1;entryX=0.5;entryY=0;entryDx=0;entryDy=0;" edge="1" parent="1" source="vcMFqcLO1t7sQVbXytFB-13" target="vcMFqcLO1t7sQVbXytFB-15">
          <mxGeometry relative="1" as="geometry" />
        </mxCell>
        <mxCell id="vcMFqcLO1t7sQVbXytFB-13" value="Открытие файлов с данными" style="shape=parallelogram;perimeter=parallelogramPerimeter;whiteSpace=wrap;html=1;fixedSize=1;" vertex="1" parent="1">
          <mxGeometry x="346" y="270" width="136" height="60" as="geometry" />
        </mxCell>
        <mxCell id="vcMFqcLO1t7sQVbXytFB-15" value="Чтение содержимого файлов" style="rounded=0;whiteSpace=wrap;html=1;" vertex="1" parent="1">
          <mxGeometry x="354" y="380" width="120" height="60" as="geometry" />
        </mxCell>
        <mxCell id="vcMFqcLO1t7sQVbXytFB-18" value="" style="rounded=0;whiteSpace=wrap;html=1;" vertex="1" parent="1">
          <mxGeometry x="354" y="500" width="120" height="60" as="geometry" />
        </mxCell>
      </root>
    </mxGraphModel>
  </diagram>
</mxfile>
